<?xml version="1.0" encoding="utf-8"?>
<!-- Generator: Adobe Illustrator 13.0.0, SVG Export Plug-In . SVG Version: 6.00 Build 14948)  -->
<!DOCTYPE svg PUBLIC "-//W3C//DTD SVG 1.1//EN" "http://www.w3.org/Graphics/SVG/1.1/DTD/svg11.dtd">
<svg version="1.1" id="Layer_1" xmlns="http://www.w3.org/2000/svg" xmlns:xlink="http://www.w3.org/1999/xlink" x="0px" y="0px"
	 width="256px" height="256px" viewBox="0 0 256 256" enable-background="new 0 0 256 256" xml:space="preserve">
<g id="Layer_78">
	<g>
		<g>
			<g>
				<g>
					<polygon fill="#FFFFFF" points="236,252 20,252 4,236 4,228 100,228 108,236 148,236 156,228 252,228 252,236 					"/>
					<path fill="#FFFFFF" d="M232,232V104c0-6.629-5.375-12-12-12H36c-6.625,0-12,5.371-12,12v128"/>
					<polygon fill="none" stroke="#657889" stroke-width="8" stroke-miterlimit="10" points="236,252 20,252 4,236 4,228 100,228 
						108,236 148,236 156,228 252,228 252,236 					"/>
					<path fill="none" stroke="#657889" stroke-width="8" stroke-miterlimit="10" d="M36,92c-6.625,0-12,5.371-12,12v120"/>
					<path fill="none" stroke="#657889" stroke-width="8" stroke-miterlimit="10" d="M232,224V104c0-6.629-5.375-12-12-12"/>
					<rect x="36" y="104" fill="#76E1E5" width="184" height="112"/>
				</g>
			</g>
			<g>
				<path fill="#FFFFFF" d="M104,164l28,16c0,0,0,1.375,0,8c0,6.629-4,12-8,12H60c-4,0-8-5.371-8-12c0-6.625,0-8,0-8l28-16"/>
				<path fill="#FFC469" d="M112,142c0,14-7.852,26-20,26s-20-12-20-26s4-22,20-22S112,128,112,142z"/>
				<path fill="none" stroke="#657889" stroke-width="8" stroke-miterlimit="10" d="M112,142c0,14-7.852,26-20,26s-20-12-20-26
					s4-22,20-22S112,128,112,142z"/>
				<path fill="none" stroke="#657889" stroke-width="8" stroke-miterlimit="10" d="M104,164l28,16c0,0,0,1.375,0,8
					c0,6.629-4,12-8,12H60c-4,0-8-5.371-8-12c0-6.625,0-8,0-8l28-16"/>
			</g>
			<g>
				<path fill="#FFFFFF" d="M208,84c0,4.418-3.582,8-8,8h-16l-40,40V92H56c-4.418,0-8-3.582-8-8V12c0-4.418,3.582-8,8-8h144
					c4.418,0,8,3.582,8,8V84z"/>
				<path fill="none" stroke="#657889" stroke-width="8" stroke-linejoin="round" stroke-miterlimit="10" d="M208,84
					c0,4.418-3.582,8-8,8h-16l-40,40V92H56c-4.418,0-8-3.582-8-8V12c0-4.418,3.582-8,8-8h144c4.418,0,8,3.582,8,8V84z"/>
				<rect x="60" y="16" fill="#F59D15" width="136" height="64"/>
				
					<line fill="none" stroke="#657889" stroke-width="8" stroke-linejoin="round" stroke-miterlimit="10" x1="124" y1="48" x2="132" y2="48"/>
				
					<line fill="none" stroke="#657889" stroke-width="8" stroke-linejoin="round" stroke-miterlimit="10" x1="140" y1="48" x2="148" y2="48"/>
				
					<line fill="none" stroke="#657889" stroke-width="8" stroke-linejoin="round" stroke-miterlimit="10" x1="108" y1="48" x2="116" y2="48"/>
			</g>
			<polyline fill="none" stroke="#657889" stroke-width="8" stroke-miterlimit="10" points="204,140 204,200 148,200 			"/>
			
				<line fill="none" stroke="#657889" stroke-width="8" stroke-linejoin="round" stroke-miterlimit="10" x1="192" y1="152" x2="156" y2="152"/>
			
				<line fill="none" stroke="#657889" stroke-width="8" stroke-linejoin="round" stroke-miterlimit="10" x1="192" y1="168" x2="156" y2="168"/>
			
				<line fill="none" stroke="#657889" stroke-width="8" stroke-linejoin="round" stroke-miterlimit="10" x1="192" y1="184" x2="156" y2="184"/>
		</g>
	</g>
</g>
<g id="Layer_1_1_">
</g>
</svg>
